# AST/ASF file generated using VICON BodyLanguage
# -----------------------------------------------
:version 1.10
:name VICON
:units
  mass 1.0
  length 0.45
  angle deg
:documentation
   .ast/.asf automatically generated from VICON data using
   VICON BodyBuilder and BodyLanguage model FoxedUp or BRILLIANT.MOD
:root
   order TX TY TZ RX RY RZ
   axis XYZ
   position 0 0 0  
   orientation 0 0 0 
:bonedata
  begin
     id 1 
     name lhipjoint
     direction 0.643272 -0.706573 0.294883 
     length 2.58915 
     axis 0 0 0  XYZ
  end
  begin
     id 2 
     name lfemur
     direction 0.34202 -0.939693 0  
     length 7.06802  
     axis 0 0 20  XYZ
    dof rx ry rz
    limits (-160.0 20.0)
           (-70.0 70.0)
           (-60.0 70.0)
  end
  begin
     id 3 
     name ltibia
     direction 0.34202 -0.939693 0   
     length 7.94147   
     axis 0 0 20   XYZ
    dof rx
    limits (-10.0 170.0)
  end
  begin
     id 4 
     name lfoot
     direction 0.0435058 -0.119531 0.991877   
     length 1.8399   
     axis -90 7.62852e-016 20   XYZ
    dof rx rz
    limits (-45.0 90.0)
           (-70.0 20.0)
  end
  begin
     id 5 
     name ltoes
     direction 1.53505e-011 -4.22157e-011 1   
     length 0.934412   
     axis -90 7.62852e-016 20   XYZ
    dof rx
    limits (-90.0 20.0)
  end
  begin
     id 6 
     name rhipjoint
     direction -0.636801 -0.711547 0.296959   
     length 2.57105  
     axis 0 0 0  XYZ 
  end
  begin
     id 7 
     name rfemur
     direction -0.34202 -0.939693 0   
     length 7.03285   
     axis 0 0 -20   XYZ
    dof rx ry rz
    limits (-160.0 20.0)
           (-70.0 70.0)
           (-70.0 60.0)
  end
  begin
     id 8 
     name rtibia
     direction -0.34202 -0.939693 0   
     length 7.99111   
     axis 0 0 -20   XYZ
    dof rx
    limits (-10.0 170.0)
 end
 begin
     id 9 
     name rfoot
     direction -0.0783088 -0.215152 0.973436   
     length 1.98785  
     axis -90 -7.62852e-016 -20   XYZ
    dof rx rz
    limits (-45.0 90.0)
           (-20.0 70.0)
  end
  begin
     id 10 
     name rtoes
     direction -1.53606e-011 -4.21943e-011 1   
     length 1.001   
     axis -90 -7.62852e-016 -20   XYZ
    dof rx
    limits (-90.0 20.0)
  end
  begin
     id 11 
     name lowerback
     direction 0.00141527 0.998403 -0.0564763   
     length 2.30486   
     axis 0 0 0   XYZ
    dof rx ry rz
    limits (-20.0 45.0)
           (-30.0 30.0)
           (-30.0 30.0)
  end
  begin
     id 12 
     name upperback
     direction 0.0125137 0.999915 0.00361315   
     length 2.30697   
     axis 0 0 0   XYZ
    dof rx ry rz
    limits (-20.0 45.0)
           (-30.0 30.0)
           (-30.0 30.0)
  end
  begin
     id 13 
     name thorax
     direction 0.0136417 0.999471 0.0295116   
     length 2.31005   
     axis 0 0 0   XYZ
    dof rx ry rz
    limits (-20.0 45.0)
           (-30.0 30.0)
           (-30.0 30.0)
  end
  begin
     id 14 
     name lowerneck
     direction 0.0766806 0.997047 0.00422047   
     length 1.68825   
     axis 0 0 0   XYZ
    dof rx ry rz
    limits (-20.0 45.0)
           (-30.0 30.0)
           (-30.0 30.0)
  end
  begin
     id 15 
     name upperneck
     direction -0.143512 0.985106 -0.0947088   
     length 1.69772   
     axis 0 0 0   XYZ
    dof rx ry rz
    limits (-20.0 45.0)
           (-30.0 30.0)
           (-30.0 30.0)
  end
  begin
     id 16
     name head
     direction -0.0539128 0.997849 -0.0372864  
     length 1.71187  
     axis 0 0 0   XYZ
    dof rx ry rz
    limits (-20.0 45.0)
           (-30.0 30.0)
           (-30.0 30.0)
  end
  begin
     id 17 
     name lclavicle
     direction 0.978251 0.207416 -0.00165765  
     length 3.35399  
     axis 0 0 0   XYZ
    dof ry rz
    limits (-20.0 10.0)
           (0.0 20.0)
  end
  begin
     id 18 
     name lhumerus
     direction 1 -4.48966e-011 -1.32191e-028   
     length 5.70706   
     axis 180 -30 -90   XYZ
    dof rx ry rz
    limits (-60.0 90.0)
           (-90.0 90.0)
           (-90.0 90.0)
  end
  begin
     id 19
     name lradius
     direction 1 -4.48976e-011 9.36106e-027   
     length 3.33243   
     axis 180 -30 -90   XYZ
    dof rx
    limits (-10.0 170.0)
  end
  begin
     id 20
     name lwrist
     direction 1 -4.48976e-011 1.1555e-026   
     length 1.66621   
     axis -5.7412e-015 90 90   XYZ
    dof ry
    limits (-180.0 0.0)
 end
  begin
     id 21 
     name lhand
     direction 1 -4.48939e-011 2.31113e-026   
     length 0.792687   
     axis -1.47463e-014 90 90   XYZ
    dof rx rz
    limits (-90.0 90.0)
           (-45.0 45.0)
  end
  begin
     id 22 
     name lfingers
     direction 1 -4.48866e-011 4.62274e-026   
     length 0.639085   
     axis -2.94925e-014 90 90   XYZ
    dof rx
    limits (0.0 90.0)
  end
  begin
     id 23
     name lthumb
     direction 0.707107 -6.34847e-011 0.707107   
     length 0.917601   
     axis -90 45 -6.68868e-015   XYZ
    dof rx rz
    limits (-45.0 45.0)
           (-45.0 45.0)
  end
  begin
     id 24 
     name rclavicle
     direction -0.981813 0.185514 0.0403428   
     length 3.47271  
     axis 0 0 0   XYZ 
    dof ry rz
    limits (-10.0 20.0)
           (-20.0 0.0)
  end
  begin
     id 25 
     name rhumerus
     direction -1 -4.48972e-011 -6.58544e-029  
     length 5.88176   
     axis 180 30 90   XYZ
    dof rx ry rz
    limits (-90.0 60.0)
           (-90.0 90.0)
           (-90.0 90.0)
  end
  begin
     id 26 
     name rradius
     direction -1 -4.48964e-011 8.36306e-027   
     length 3.28156   
     axis 180 30 90   XYZ
    dof rx
    limits (-10.0 170.0)
  end
  begin
     id 27 
     name rwrist
     direction -1 -4.48903e-011 1.15562e-026   
     length 1.64078   
     axis -5.7412e-015 -90 -90   XYZ
    dof ry
    limits (-180.0 0.0)
  end
  begin
     id 28
     name rhand
     direction -1 -4.49055e-011 2.31074e-026   
     length 0.863125   
     axis -1.47463e-014 -90 -90   XYZ
    dof rx rz
    limits (-90.0 90.0)
           (-45.0 45.0)
  end
  begin
     id 29
     name rfingers
     direction -1 -4.48994e-011 4.62188e-026   
     length 0.695873   
     axis -2.94925e-014 -90 -90   XYZ
    dof rx
    limits (0.0 90.0)
  end
  begin
     id 30
     name rthumb
     direction -0.707107 -6.35058e-011 0.707107   
     length 0.999139   
     axis -90 -45 6.68868e-015   XYZ
    dof rx rz
    limits (-45.0 45.0)
           (-45.0 45.0)
  end
:hierarchy
  begin
    root lhipjoint rhipjoint lowerback
    lhipjoint lfemur
    lfemur ltibia
    ltibia lfoot
    lfoot ltoes
    rhipjoint rfemur
    rfemur rtibia
    rtibia rfoot
    rfoot rtoes
    lowerback upperback
    upperback thorax
    thorax lowerneck lclavicle rclavicle
    lowerneck upperneck
    upperneck head
    lclavicle lhumerus
    lhumerus lradius
    lradius lwrist
    lwrist lhand lthumb
    lhand lfingers
    rclavicle rhumerus
    rhumerus rradius
    rradius rwrist
    rwrist rhand rthumb
    rhand rfingers
  end

#!OML:ASF \\Waltz\H\Terrain\Patient Classification 1\Animal2\Wednesday\Animal2.ASF
:FULLY-SPECIFIED
:DEGREES
750
root 1.33787 17.4591 -10.9926 -0.491682 2.09295 9.54235
lowerback 5.85984 -5.37273 -3.64329
upperback -2.65456 -7.77569 -4.69172
thorax -6.23695 -3.80046 -2.00221
lowerneck 8.87188 9.64734 16.3568
upperneck -13.3876 12.9572 -20.1631
head -2.82611 6.95899 -9.42871
rclavicle 4.25399e-014 1.64991e-014
rhumerus 21.1259 42.5456 -60.7694
rradius 93.4689
rwrist -16.8243
rhand -15.967 17.2724
rfingers 7.12502
rthumb 10.232 -12.4587
lclavicle 4.25399e-014 1.64991e-014
lhumerus 21.6335 10.064 30.7335
lradius 79.1143
lwrist -7.46089
lhand -52.47 21.1451
lfingers 7.12502
lthumb -24.958 49.5352
rfemur -25.7047 13.9153 7.79575
rtibia 56.2538
rfoot -25.1197 -8.2231
rtoes 25.3201
lfemur -3.05364 1.61611 -28.8147
ltibia 22.4855
lfoot -19.0136 -7.11373
ltoes -26.3135
751
root 1.31016 17.4647 -10.9578 -0.462466 2.12001 9.35837
lowerback 5.8769 -5.38645 -3.6686
upperback -2.6921 -7.79605 -4.63531
thorax -6.27519 -3.8069 -1.92442
lowerneck 9.00413 9.64558 16.2891
upperneck -13.6907 12.9547 -19.9359
head -2.96141 6.95019 -9.37235
rclavicle 9.75287e-015 1.0138e-014
rhumerus 21.3547 42.4008 -60.4928
rradius 93.5291
rwrist -17.0842
rhand -15.6507 17.1394
rfingers 7.12502
rthumb 10.5371 -12.5765
lclavicle 9.75287e-015 1.0138e-014
lhumerus 21.7681 9.87888 30.2506
lradius 78.9598
lwrist -7.31897
lhand -51.5111 20.4086
lfingers 7.12502
lthumb -24.0387 48.9231
rfemur -25.5081 13.9936 7.92529
rtibia 55.2499
rfoot -25.2316 -7.11522
rtoes 26.1406
lfemur -2.81798 1.56653 -28.5041
ltibia 22.1985
lfoot -18.8651 -7.05499
ltoes -26.2557
752
root 1.27595 17.4752 -10.9252 -0.447254 2.11421 9.17406
lowerback 5.92007 -5.3933 -3.75944
upperback -2.72575 -7.81283 -4.56233
thorax -6.31303 -3.80809 -1.79213
lowerneck 9.12258 9.5876 16.3893
upperneck -13.9909 12.8775 -19.9295
head -3.07646 6.91006 -9.41615
rclavicle -1.67103e-014 -8.34896e-015
rhumerus 21.5318 42.3232 -60.1996
rradius 93.5587
rwrist -17.2723
rhand -15.389 17.4858
rfingers 7.12502
rthumb 10.7895 -12.2171
lclavicle -1.67103e-014 -8.34896e-015
lhumerus 21.7413 9.43265 29.3717
lradius 78.8256
lwrist -6.86378
lhand -51.3168 20.2246
lfingers 7.12502
lthumb -23.8524 48.7637
rfemur -25.3116 14.0169 8.11527
rtibia 54.2743
rfoot -25.102 -6.53236
rtoes 25.4224
lfemur -2.67302 1.48684 -28.1868
ltibia 22.1069
lfoot -18.9147 -6.92368
ltoes -26.5023
753
root 1.24346 17.4796 -10.8907 -0.434877 2.16642 9.17771
lowerback 5.92608 -5.37974 -4.06099
upperback -2.66089 -7.81104 -4.52228
thorax -6.20176 -3.79515 -1.59098
lowerneck 8.84712 9.53065 16.6108
upperneck -14.0138 12.7774 -20.0626
head -3.02737 6.84752 -9.47922
rclavicle 6.55865e-014 5.32743e-014
rhumerus 22.0858 42.1358 -59.4699
rradius 93.5599
rwrist -17.381
rhand -15.5287 17.895
rfingers 7.12502
rthumb 10.6548 -11.8148
lclavicle 6.55865e-014 5.32743e-014
lhumerus 21.9583 9.08416 28.6451
lradius 78.674
lwrist -6.68219
lhand -51.4327 20.8458
lfingers 7.12502
lthumb -23.9636 49.3702
rfemur -25.018 13.7406 8.12932
rtibia 53.3034
rfoot -24.6633 -6.65849
rtoes 22.2291
lfemur -2.58862 1.3657 -28.1009
ltibia 22.1645
lfoot -19.071 -6.77144
ltoes -27.3213
754
root 1.21016 17.4806 -10.8524 -0.42523 2.17267 9.00479
lowerback 5.80037 -5.38011 -4.21798
upperback -2.7567 -7.81272 -4.39315
thorax -6.19186 -3.78595 -1.38084
lowerneck 9.63371 9.33413 16.7313
upperneck -14.4171 12.5861 -20.1821
head -3.29724 6.78502 -9.62966
rclavicle -6.56238e-014 -1.35174e-014
rhumerus 22.2284 42.2117 -59.0269
rradius 93.6734
rwrist -17.821
rhand -15.4572 17.5803
rfingers 7.12502
rthumb 10.7238 -12.126
lclavicle -6.56238e-014 -1.35174e-014
lhumerus 22.0801 8.88205 28.2909
lradius 78.3966
lwrist -6.93475
lhand -50.8024 20.5999
lfingers 7.12502
lthumb -23.3591 49.2024
rfemur -24.655 13.3792 8.39602
rtibia 52.3079
rfoot -24.1436 -7.02979
rtoes 17.9292
lfemur -2.54093 1.17954 -27.8365
ltibia 22.2494
lfoot -19.2156 -6.49156
ltoes -27.7499
755
root 1.17367 17.4903 -10.8112 -0.390541 2.17061 8.51427
lowerback 5.70774 -5.3726 -4.03948
upperback -2.58349 -7.75402 -4.17095
thorax -5.94457 -3.76469 -1.27161
lowerneck 8.74977 9.41143 16.4062
upperneck -14.1755 12.5676 -19.9182
head -3.12375 6.73847 -9.41189
rclavicle -6.16232e-014 7.55382e-015
rhumerus 22.8741 41.9513 -58.2477
rradius 93.79
rwrist -18.3545
rhand -15.3809 17.1836
rfingers 7.12502
rthumb 10.7974 -12.5188
lclavicle -6.16232e-014 7.55382e-015
lhumerus 22.429 8.97193 27.6605
lradius 77.9655
lwrist -6.89634
lhand -50.7606 19.9625
lfingers 7.12502
lthumb -23.3189 48.5702
rfemur -24.3176 13.0764 9.00582
rtibia 51.2619
rfoot -23.6692 -6.29486
rtoes 19.6241
lfemur -2.49779 0.724493 -27.2473
ltibia 22.364
lfoot -19.3186 -5.87215
ltoes -27.5359
756
root 1.13543 17.4998 -10.7729 -0.445144 2.25047 8.08086
lowerback 5.83817 -5.26812 -3.92877
upperback -2.71042 -7.6124 -3.99846
thorax -6.14231 -3.68952 -1.14863
lowerneck 9.01067 9.20234 16.245
upperneck -14.078 12.3308 -19.6304
head -3.22063 6.62005 -9.31651
rclavicle 1.02026e-013 2.22639e-014
rhumerus 22.607 41.9061 -57.9868
rradius 93.7877
rwrist -18.6089
rhand -15.6284 17.1142
rfingers 7.12502
rthumb 10.5586 -12.6006
lclavicle 1.02026e-013 2.22639e-014
lhumerus 22.5327 8.24998 26.9782
lradius 77.6525
lwrist -6.71576
lhand -51.3203 19.9211
lfingers 7.12502
lthumb -23.8558 48.4597
rfemur -23.7745 12.6556 9.59353
rtibia 50.2618
rfoot -23.3236 -4.75302
rtoes 25.6496
lfemur -2.37739 0.201783 -26.7213
ltibia 22.5439
lfoot -19.3893 -5.19393
ltoes -27.7279
757
root 1.09248 17.5043 -10.7358 -0.564137 2.25302 7.71171
lowerback 5.96771 -5.18204 -3.9659
upperback -2.76104 -7.50015 -3.81191
thorax -6.23851 -3.62468 -0.932786
lowerneck 9.25584 9.05141 16.2429
upperneck -14.1535 12.1501 -19.6255
head -3.3191 6.53943 -9.34405
rclavicle 1.70706e-014 -9.34288e-015
rhumerus 22.5621 41.8011 -57.8004
rradius 93.6199
rwrist -18.8194
rhand -15.3104 17.2509
rfingers 7.12502
rthumb 10.8653 -12.448
lclavicle 1.70706e-014 -9.34288e-015
lhumerus 22.617 7.85113 26.4447
lradius 77.4087
lwrist -6.66098
lhand -51.3447 19.8272
lfingers 7.12502
lthumb -23.8792 48.3627
rfemur -23.1292 12.1076 10.2181
rtibia 49.364
rfoot -22.9334 -4.51555
rtoes 26.2837
lfemur -2.23987 -0.158074 -26.231
ltibia 22.7006
lfoot -19.4833 -4.69553
ltoes -27.9436
758
root 1.04546 17.5024 -10.6979 -0.668453 2.16784 7.28926
lowerback 5.9784 -5.07109 -3.98126
upperback -2.66048 -7.33334 -3.61194
thorax -6.10817 -3.53966 -0.739734
lowerneck 9.00481 8.94631 16.3576
upperneck -14.1053 11.9734 -19.8022
head -3.27256 6.44862 -9.40563
rclavicle 3.05631e-015 -5.56597e-015
rhumerus 22.7138 41.5023 -57.4997
rradius 93.4343
rwrist -18.8227
rhand -14.842 17.8215
rfingers 7.12502
rthumb 11.3172 -11.8531
lclavicle 3.05631e-015 -5.56597e-015
lhumerus 22.9279 7.67611 25.8498
lradius 77.1294
lwrist -6.41356
lhand -51.0486 19.635
lfingers 7.12502
lthumb -23.5952 48.2074
rfemur -22.5281 11.6214 10.9578
rtibia 48.5578
rfoot -22.7631 -4.72121
rtoes 24.7793
lfemur -2.11767 -0.53615 -25.6764
ltibia 22.8856
lfoot -19.5548 -4.2609
ltoes -27.0535
759
root 1.00047 17.4996 -10.66 -0.819618 2.17355 6.99743
lowerback 5.98267 -4.99449 -4.05755
upperback -2.49336 -7.21815 -3.49202
thorax -5.9084 -3.48184 -0.594669
lowerneck 8.71684 8.85382 16.4076
upperneck -14.0192 11.8148 -19.8614
head -3.21964 6.36039 -9.41346
rclavicle 2.61278e-014 -2.06736e-014
rhumerus 22.943 41.2496 -57.1287
rradius 93.3217
rwrist -18.6171
rhand -14.9272 18.5544
rfingers 7.12502
rthumb 11.235 -11.1248
lclavicle 2.61278e-014 -2.06736e-014
lhumerus 23.4409 7.69725 25.3648
lradius 76.7418
lwrist -6.24598
lhand -50.7889 19.7119
lfingers 7.12502
lthumb -23.3461 48.3161
rfemur -21.7161 11.0383 11.559
rtibia 47.7908
rfoot -22.8083 -3.60148
rtoes 28.4687
lfemur -1.96578 -1.11998 -25.3063
ltibia 23.264
lfoot -19.7442 -3.48594
ltoes -26.9089
